<svg width="100%" height="100%" viewBox="0 0 1920 7014" version="1.1" xmlns="http://www.w3.org/2000/svg" xmlns:xlink="http://www.w3.org/1999/xlink" xml:space="preserve" xmlns:serif="http://www.serif.com/" style="fill-rule:evenodd;clip-rule:evenodd;stroke-linejoin:round;stroke-miterlimit:2;">
    <g transform="matrix(1,0,0,1,-2076.52,-6447.99)">
        <g id="BG" transform="matrix(0.817524,0,0,6.62598,1070.72,6447.99)">
            <rect x="1230.3" y="0" width="2348.55" height="1058.42" style="fill:none;"/>
            <clipPath id="_clip1">
                <rect x="1230.3" y="0" width="2348.55" height="1058.42"/>
            </clipPath>
            <g clip-path="url(#_clip1)">
                <g transform="matrix(1.16241,0,0,0.17901,-693.632,51.63)">
                    <g transform="matrix(0.864937,-0.692979,0.864937,0.692979,1010.74,511.258)">
                        <path d="M248,497L0,497L0,248L248,248L248,-0L497,-0L497,248L745,248L745,497L497,497L497,745L248,745L248,497Z" style="fill:rgb(211,213,183);"/>
                    </g>
                    <g transform="matrix(0.864937,-0.692979,0.864937,0.692979,1010.74,511.258)">
                        <path d="M289,456.298L55,456.298L55,248.035L289,248.035L289,14L497.263,14L497.263,248.035L732.035,248.035L732.035,456.298L497.263,456.298L497.263,691.035L289,691.035L289,456.298Z" style="fill:rgb(197,200,160);"/>
                    </g>
                </g>
                <g transform="matrix(1.16241,0,0,0.17901,1517.81,150.825)">
                    <g transform="matrix(0.864937,-0.692979,0.864937,0.692979,1010.74,511.258)">
                        <path d="M248,497L0,497L0,248L248,248L248,-0L497,-0L497,248L745,248L745,497L497,497L497,745L248,745L248,497Z" style="fill:rgb(211,213,183);"/>
                    </g>
                    <g transform="matrix(0.864937,-0.692979,0.864937,0.692979,1010.74,511.258)">
                        <path d="M289,456.298L55,456.298L55,248.035L289,248.035L289,14L497.263,14L497.263,248.035L732.035,248.035L732.035,456.298L497.263,456.298L497.263,691.035L289,691.035L289,456.298Z" style="fill:rgb(197,200,160);"/>
                    </g>
                </g>
                <g transform="matrix(1.16241,0,0,0.17901,1876.32,419.454)">
                    <g transform="matrix(0.864937,-0.692979,0.864937,0.692979,1010.74,511.258)">
                        <path d="M248,497L0,497L0,248L248,248L248,-0L497,-0L497,248L745,248L745,497L497,497L497,745L248,745L248,497Z" style="fill:rgb(211,213,183);"/>
                    </g>
                    <g transform="matrix(0.864937,-0.692979,0.864937,0.692979,1010.74,511.258)">
                        <path d="M289,456.298L55,456.298L55,248.035L289,248.035L289,14L497.263,14L497.263,248.035L732.035,248.035L732.035,456.298L497.263,456.298L497.263,691.035L289,691.035L289,456.298Z" style="fill:rgb(197,200,160);"/>
                    </g>
                </g>
                <g transform="matrix(1.16241,0,0,0.17901,876.938,700.138)">
                    <g transform="matrix(0.864937,-0.692979,0.864937,0.692979,1010.74,511.258)">
                        <path d="M248,497L0,497L0,248L248,248L248,-0L497,-0L497,248L745,248L745,497L497,497L497,745L248,745L248,497Z" style="fill:rgb(211,213,183);"/>
                    </g>
                    <g transform="matrix(0.864937,-0.692979,0.864937,0.692979,1010.74,511.258)">
                        <path d="M289,456.298L55,456.298L55,248.035L289,248.035L289,14L497.263,14L497.263,248.035L732.035,248.035L732.035,456.298L497.263,456.298L497.263,691.035L289,691.035L289,456.298Z" style="fill:rgb(197,200,160);"/>
                    </g>
                </g>
                <g transform="matrix(1.16241,0,0,0.17901,-963.131,843.596)">
                    <g transform="matrix(0.864937,-0.692979,0.864937,0.692979,1010.74,511.258)">
                        <path d="M248,497L0,497L0,248L248,248L248,-0L497,-0L497,248L745,248L745,497L497,497L497,745L248,745L248,497Z" style="fill:rgb(211,213,183);"/>
                    </g>
                    <g transform="matrix(0.864937,-0.692979,0.864937,0.692979,1010.74,511.258)">
                        <path d="M289,456.298L55,456.298L55,248.035L289,248.035L289,14L497.263,14L497.263,248.035L732.035,248.035L732.035,456.298L497.263,456.298L497.263,691.035L289,691.035L289,456.298Z" style="fill:rgb(197,200,160);"/>
                    </g>
                </g>
                <g transform="matrix(1.16241,0,0,0.17901,1654.92,905.249)">
                    <g transform="matrix(0.864937,-0.692979,0.864937,0.692979,1010.74,511.258)">
                        <path d="M248,497L0,497L0,248L248,248L248,-0L497,-0L497,248L745,248L745,497L497,497L497,745L248,745L248,497Z" style="fill:rgb(211,213,183);"/>
                    </g>
                    <g transform="matrix(0.864937,-0.692979,0.864937,0.692979,1010.74,511.258)">
                        <path d="M289,456.298L55,456.298L55,248.035L289,248.035L289,14L497.263,14L497.263,248.035L732.035,248.035L732.035,456.298L497.263,456.298L497.263,691.035L289,691.035L289,456.298Z" style="fill:rgb(197,200,160);"/>
                    </g>
                </g>
                <g transform="matrix(1.16241,0,0,0.17901,-693.632,576.832)">
                    <g transform="matrix(0.864937,-0.692979,0.864937,0.692979,1010.74,511.258)">
                        <path d="M248,497L0,497L0,248L248,248L248,-0L497,-0L497,248L745,248L745,497L497,497L497,745L248,745L248,497Z" style="fill:rgb(211,213,183);"/>
                    </g>
                    <g transform="matrix(0.864937,-0.692979,0.864937,0.692979,1010.74,511.258)">
                        <path d="M289,456.298L55,456.298L55,248.035L289,248.035L289,14L497.263,14L497.263,248.035L732.035,248.035L732.035,456.298L497.263,456.298L497.263,691.035L289,691.035L289,456.298Z" style="fill:rgb(197,200,160);"/>
                    </g>
                </g>
                <g transform="matrix(1.16241,0,0,0.17901,-19.0457,326.837)">
                    <g transform="matrix(0.864937,-0.692979,0.864937,0.692979,1010.74,511.258)">
                        <path d="M248,497L0,497L0,248L248,248L248,-0L497,-0L497,248L745,248L745,497L497,497L497,745L248,745L248,497Z" style="fill:rgb(211,213,183);"/>
                    </g>
                    <g transform="matrix(0.864937,-0.692979,0.864937,0.692979,1010.74,511.258)">
                        <path d="M289,456.298L55,456.298L55,248.035L289,248.035L289,14L497.263,14L497.263,248.035L732.035,248.035L732.035,456.298L497.263,456.298L497.263,691.035L289,691.035L289,456.298Z" style="fill:rgb(197,200,160);"/>
                    </g>
                </g>
                <g transform="matrix(1.12656,0,0,0.173488,1714.26,-65.7683)">
                    <g transform="matrix(0.864937,-0.692979,0.864937,0.692979,1010.74,511.258)">
                        <path d="M248,497L0,497L0,248L248,248L248,-0L497,-0L497,248L745,248L745,497L497,497L497,745L248,745L248,497Z" style="fill:rgb(211,213,183);"/>
                    </g>
                    <g transform="matrix(0.864937,-0.692979,0.864937,0.692979,1010.74,511.258)">
                        <path d="M289,456.298L55,456.298L55,248.035L289,248.035L289,14L497.263,14L497.263,248.035L732.035,248.035L732.035,456.298L497.263,456.298L497.263,691.035L289,691.035L289,456.298Z" style="fill:rgb(197,200,160);"/>
                    </g>
                </g>
                <g transform="matrix(1.12656,0,0,0.173488,-873.924,-118.004)">
                    <g transform="matrix(0.864937,-0.692979,0.864937,0.692979,1010.74,511.258)">
                        <path d="M248,497L0,497L0,248L248,248L248,-0L497,-0L497,248L745,248L745,497L497,497L497,745L248,745L248,497Z" style="fill:rgb(211,213,183);"/>
                    </g>
                    <g transform="matrix(0.864937,-0.692979,0.864937,0.692979,1010.74,511.258)">
                        <path d="M289,456.298L55,456.298L55,248.035L289,248.035L289,14L497.263,14L497.263,248.035L732.035,248.035L732.035,456.298L497.263,456.298L497.263,691.035L289,691.035L289,456.298Z" style="fill:rgb(197,200,160);"/>
                    </g>
                </g>
            </g>
        </g>
    </g>
</svg>
