<svg width="263" height="269" viewBox="0 0 263 269" fill="none" xmlns="http://www.w3.org/2000/svg">
<path fill-rule="evenodd" clip-rule="evenodd" d="M254.08 260.205C182.899 262.213 2.10802 267.007 2.10802 267.007C1.73259 243.798 0 61.7977 0 0C34.7662 0 261.006 1.99341 261.006 1.99341L254.08 260.205C251.583 187.864 247.383 15.606 247.383 15.606C247.383 15.606 83.8448 17.3385 17.3419 17.2963C17.3419 17.2963 16.7657 172.353 15.4226 253.649L254.08 260.205ZM72.4334 175.992C89.4642 175.992 103.305 189.842 103.305 207.78C103.305 225.717 90.0705 239.639 72.4334 239.639C54.7984 239.639 41.4918 225.717 41.4918 207.78C41.4918 189.842 55.5492 175.992 72.4334 175.992ZM72.4334 226.092C83.5898 226.092 88.2094 216.936 88.2094 207.78C88.2094 198.622 83.3027 189.466 72.4334 189.466C61.5661 189.466 56.5872 198.622 56.5872 207.78C56.5872 216.936 60.9758 226.092 72.4334 226.092ZM163.343 216.72C163.343 231.898 155.017 239.653 139.386 239.653C123.757 239.653 115.429 231.912 115.429 216.72V177.118H129.414V212.632C129.414 222.901 132.532 225.89 139.386 225.89C146.242 225.89 149.36 222.915 149.36 212.632V177.118H163.343V216.72ZM174.875 177.104H218.013V189.394H203.436V238.527H189.45V189.394H174.875V177.104ZM171.96 33.621H215.098V45.9127H200.52V95.0433H186.535V45.9127H171.96V33.621ZM75.3364 32.5089C92.3652 32.5089 106.206 46.3603 106.206 64.297C106.206 82.2337 92.9575 96.1555 75.3364 96.1555C57.7155 96.1555 44.3928 82.2337 44.3928 64.297C44.3928 46.3603 58.4502 32.5089 75.3364 32.5089ZM75.3364 82.6091C86.4929 82.6091 91.1104 73.4531 91.1104 64.297C91.1104 55.141 86.2038 45.9849 75.3364 45.9849C64.4691 45.9849 59.4902 55.141 59.4902 64.297C59.4902 73.4531 63.8769 82.6091 75.3364 82.6091ZM141.494 33.621C153.465 33.627 162.464 39.808 162.464 52.5273C162.464 65.2506 153.459 72.2546 141.48 72.2546H133.08V95.0293H119.095V33.621H141.48H141.494ZM137.021 61.0911C142.518 61.0911 147.73 59.2282 147.73 52.9749C147.73 46.7217 142.518 44.7845 137.021 44.7845H133.08V61.0911H137.021ZM119.326 130.385H118.966L106.395 166.417H98.0669L85.4971 130.385H85.1217L82.2206 166.792H68.2354L73.7344 105.384H88.6149L102.225 140.826L115.834 105.384H130.713L136.212 166.792H122.227L119.326 130.385ZM183.694 117.645H162.566V129.849H182.799V142.124H162.566V154.488H183.694V166.764H148.581V105.356H183.694V117.645Z" fill="#E71E24"/>
</svg>
