<svg width="400" height="86" viewBox="0 0 400 86" fill="none" xmlns="http://www.w3.org/2000/svg">
<g clip-path="url(#clip0_328_271)">
<path fill-rule="evenodd" clip-rule="evenodd" d="M395.352 82.2324C347.501 83.5746 1.42492 84.9825 1.42492 84.9825L0.0078125 0L400.008 3.13L395.352 82.2324L393.549 10.8906L11.6659 10.2222C11.6659 10.2222 11.2786 23.0388 10.3757 77.3937L395.352 82.2324ZM90.0214 23.8213C98.0692 23.8253 104.118 27.958 104.118 36.4621C104.118 44.969 98.0638 49.6519 90.0119 49.6519H84.3651V64.8791H74.9636V23.8213H90.0119H90.0214ZM87.0131 42.1879C90.7097 42.1879 94.212 40.9424 94.212 36.7614C94.212 32.5791 90.7097 31.2853 87.0131 31.2853H84.3651V42.1879H87.0131ZM46.8967 23.8213C58.3442 23.8213 67.6486 33.0825 67.6486 45.075C67.6486 57.0675 58.7424 66.3756 46.8967 66.3756C35.0496 66.3756 26.0948 57.0675 26.0948 45.075C26.0948 33.0825 35.5449 23.8213 46.8967 23.8213ZM46.8967 57.3185C54.3952 57.3185 57.5007 51.1967 57.5007 45.075C57.5007 38.9532 54.2022 32.8315 46.8967 32.8315C39.5911 32.8315 36.2427 38.9532 36.2427 45.075C36.2427 51.1967 39.193 57.3185 46.8967 57.3185ZM109.151 23.8213H138.152V32.0396H128.352V64.8885H118.951V32.0396H109.151V23.8213ZM195.253 40.537H195.01L186.56 64.6281H180.962L172.512 40.537H172.26L170.31 64.8791H160.908L164.605 23.8213H174.608L183.756 47.5178L192.905 23.8213H202.908L206.605 64.8791H197.204L195.253 40.537ZM237.176 32.0396H222.971V40.1988H236.574V48.4063H222.971V56.6716H237.176V64.8791H213.571V23.8213H237.176V32.0396ZM279.836 23.8213C291.284 23.8213 300.588 33.0825 300.588 45.075C300.588 57.0675 291.691 66.3756 279.836 66.3756C267.98 66.3756 259.034 57.0675 259.034 45.075C259.034 33.0825 268.484 23.8213 279.836 23.8213ZM279.836 57.3185C287.336 57.3185 290.44 51.1967 290.44 45.075C290.44 38.9532 287.142 32.8315 279.836 32.8315C272.531 32.8315 269.182 38.9532 269.182 45.075C269.182 51.1967 272.132 57.3185 279.836 57.3185ZM339.6 50.2988C339.6 60.4472 334.002 65.6321 323.494 65.6321C312.987 65.6321 307.389 60.4566 307.389 50.2988V23.8213H316.79V47.5661C316.79 54.4314 318.886 56.43 323.494 56.43C328.103 56.43 330.199 54.4408 330.199 47.5661V23.8213H339.6V50.2988ZM346.002 23.8213H375.001V32.0396H365.202V64.8885H355.801V32.0396H346.002V23.8213Z" fill="#E71E24"/>
</g>
</svg>
