<?xml version="1.0" encoding="UTF-8" standalone="no"?>
<svg
   width="80"
   height="34"
   viewBox="0 0 80 34"
   fill="none"
   version="1.1"
   id="svg2"
   xmlns="http://www.w3.org/2000/svg"
   xmlns:svg="http://www.w3.org/2000/svg">
  <rect
     width="80"
     height="34"
     rx="17"
     fill="#B3B681"
     id="rect1"
     style="fill:#1c274c;fill-opacity:1"
     x="0"
     y="0" />
  <g
     clip-path="url(#clip0_493_762)"
     id="g1">
    <path
       fill-rule="evenodd"
       clip-rule="evenodd"
       d="m 33.1072,15.078 h 2.3939 c 1.1377,0 2.0614,0.8612 2.0614,1.922 l -1.9304,8.7066 c 0,1.0609 -0.9237,1.922 -2.0614,1.922 h -8.0833 c -0.2938,0 -0.5353,-5e-4 -0.7318,-0.0012 0.4294,-0.0355 -0.643,-0.0267 -0.755,-0.0148 -0.7749,-0.11 -1.1147,-0.5136 -1.4009,-0.7904 0,0 0.0082,-10.401 -0.0104,-10.7491 -0.0188,-0.3484 0.4619,-0.8787 0.4619,-0.8787 0,0 1.3222,-1.184 2.2359,-1.9267 2.6235,-2.1324 4.4443,-4.3027 5.1605,-7.0844 0.3666,-1.42429 1.7907,-1.24564 2.1909,-1.05769 3.9969,1.8767 -1.922,9.92789 -1.922,9.92789 0,0 1.3732,0.01 2.3603,0.0193 0.0102,0 0.0204,0.0017 0.0304,0.0052 z m -9.1066,12.5346 c 0.0163,0.0023 0.033,0.0046 0.0499,0.0067 -0.0588,-0.0023 -0.0704,-0.0044 -0.0499,-0.0067 z m 0.0499,0.0067 c 0.0938,0.0034 0.3083,0.0065 0.7051,0.0081 -0.0051,3e-4 -0.0105,9e-4 -0.016,0.0012 -0.2618,0.0205 -0.4896,0.0151 -0.6891,-0.0093 z M 21.7779,16.115 v 10.8202 c 0,0.3828 -0.3107,0.6934 -0.6934,0.6934 H 16.6934 C 16.3106,27.6286 16,27.318 16,26.9352 V 16.115 c 0,-0.3826 0.3106,-0.6932 0.6934,-0.6932 h 4.3911 c 0.3827,0 0.6934,0.3106 0.6934,0.6932 z"
       fill="#ffffff"
       id="path1" />
  </g>
  <defs
     id="defs2">
    <clipPath
       id="clip0_493_762">
      <rect
         width="21.5625"
         height="23"
         fill="#ffffff"
         transform="translate(16,5)"
         id="rect2"
         x="0"
         y="0" />
    </clipPath>
  </defs>
</svg>
