<?xml version="1.0" encoding="UTF-8"?>
<svg version="1.1" xmlns="http://www.w3.org/2000/svg" width="229" height="27">
<path d="M0 0 C22.11 0 44.22 0 67 0 C67 1.98 67 3.96 67 6 C44.89 6 22.78 6 0 6 C0 4.02 0 2.04 0 0 Z " fill="#EFF0E5" transform="translate(157,9)"/>
<path d="M0 0 C22.11 0 44.22 0 67 0 C67 1.98 67 3.96 67 6 C44.89 6 22.78 6 0 6 C0 4.02 0 2.04 0 0 Z " fill="#EFF0E5" transform="translate(83,9)"/>
<path d="M0 0 C22.11 0 44.22 0 67 0 C67 1.98 67 3.96 67 6 C44.89 6 22.78 6 0 6 C0 4.02 0 2.04 0 0 Z " fill="#C1C399" transform="translate(7,9)"/>
</svg>
