<svg width="80" height="34" viewBox="0 0 80 34" fill="none" xmlns="http://www.w3.org/2000/svg">
<rect width="80" height="34" rx="17" fill="#B3B681"/>
<g clip-path="url(#clip0_493_762)">
<path fill-rule="evenodd" clip-rule="evenodd" d="M33.1072 15.078H35.5011C36.6388 15.078 37.5625 15.9392 37.5625 17L35.6321 25.7066C35.6321 26.7675 34.7084 27.6286 33.5707 27.6286H25.4874C25.1936 27.6286 24.9521 27.6281 24.7556 27.6274C25.185 27.5919 24.1126 27.6007 24.0006 27.6126C23.2257 27.5026 22.8859 27.099 22.5997 26.8222C22.5997 26.8222 22.6079 16.4212 22.5893 16.0731C22.5705 15.7247 23.0512 15.1944 23.0512 15.1944C23.0512 15.1944 24.3734 14.0104 25.2871 13.2677C27.9106 11.1353 29.7314 8.965 30.4476 6.1833C30.8142 4.75901 32.2383 4.93766 32.6385 5.12561C36.6354 7.00231 30.7165 15.0535 30.7165 15.0535C30.7165 15.0535 32.0897 15.0635 33.0768 15.0728C33.087 15.0728 33.0972 15.0745 33.1072 15.078ZM24.0006 27.6126C24.0169 27.6149 24.0336 27.6172 24.0505 27.6193C23.9917 27.617 23.9801 27.6149 24.0006 27.6126ZM24.0505 27.6193C24.1443 27.6227 24.3588 27.6258 24.7556 27.6274C24.7505 27.6277 24.7451 27.6283 24.7396 27.6286C24.4778 27.6491 24.25 27.6437 24.0505 27.6193ZM21.7779 16.115V26.9352C21.7779 27.318 21.4672 27.6286 21.0845 27.6286H16.6934C16.3106 27.6286 16 27.318 16 26.9352V16.115C16 15.7324 16.3106 15.4218 16.6934 15.4218H21.0845C21.4672 15.4218 21.7779 15.7324 21.7779 16.115Z" fill="white"/>
</g>
<defs>
<clipPath id="clip0_493_762">
<rect width="21.5625" height="23" fill="white" transform="translate(16 5)"/>
</clipPath>
</defs>
</svg>
