<svg width="80" height="34" viewBox="0 0 80 34" fill="none" xmlns="http://www.w3.org/2000/svg">
<rect width="80" height="34" rx="17" fill="#CCCCCC"/>
<path fill-rule="evenodd" clip-rule="evenodd" d="M46.3173 18.7521L43.8855 18.7521C42.7298 18.7521 41.7914 17.8774 41.7914 16.7997L43.7523 7.95525C43.7523 6.87761 44.6907 6.00284 45.8464 6.00284L54.0577 6.00284C54.3561 6.00284 54.6014 6.00337 54.8011 6.00408C54.3649 6.04009 55.4543 6.03118 55.568 6.01906C56.3552 6.13083 56.7004 6.54085 56.9911 6.82199C56.9911 6.82199 56.9828 17.3877 57.0017 17.7413C57.0207 18.0952 56.5324 18.6339 56.5324 18.6339C56.5324 18.6339 55.1894 19.8367 54.2611 20.5912C51.5962 22.7573 49.7464 24.962 49.0189 27.7877C48.6465 29.2345 47.1999 29.0531 46.7934 28.8621C42.7332 26.9557 48.7458 18.7771 48.7458 18.7771C48.7458 18.7771 47.3509 18.7669 46.3481 18.7575C46.3378 18.7575 46.3274 18.7557 46.3173 18.7521ZM55.568 6.01906C55.5514 6.01674 55.5345 6.01442 55.5174 6.01228C55.5771 6.0146 55.5889 6.01674 55.568 6.01906ZM55.5174 6.01228C55.422 6.0089 55.2042 6.00569 54.8011 6.00408C54.8063 6.00373 54.8118 6.0032 54.8173 6.00284C55.0833 5.98198 55.3147 5.9875 55.5174 6.01228ZM57.826 17.6987L57.826 6.70718C57.826 6.31838 58.1415 6.00284 58.5303 6.00284L62.991 6.00284C63.3798 6.00284 63.6953 6.31838 63.6953 6.70718L63.6953 17.6987C63.6953 18.0874 63.3798 18.4029 62.991 18.4029L58.5303 18.4029C58.1415 18.4029 57.826 18.0874 57.826 17.6987Z" fill="white"/>
</svg>
